<svg xmlns="http://www.w3.org/2000/svg" width="84" height="22" viewBox="0 0 84 22" role="img" aria-label="국내 주식 옵션"><title>국내 주식 옵션</title><path fill="#0F766E" d="M0 0h84v22H0z"/><g fill="#FFFFFF" transform="translate(8.1211 15.2539) scale(0.00585938 -0.00585938)"><path transform="translate(0 0)" d="M1522 1414Q1522 1275 1516.0 1167.5Q1510 1060 1485 930H1720V726H1012V464H1524V-184H1268V264H222V464H756V726H54V930H1228Q1251 1045 1259.0 1144.5Q1267 1244 1268 1354H258V1556H1522Z"/><path transform="translate(1770 0)" d="M1624 -184H1378V726H1208V-96H968V1606H1208V932H1378V1636H1624ZM384 483Q638 490 866 534L892 314Q578 260 252 260H128V1434H384Z"/><path transform="translate(4012 0)" d="M1714 428H1006V-184H754V428H54V632H1714ZM1566 1340H1035Q1048 1248 1121.0 1164.5Q1194 1081 1325.0 1020.5Q1456 960 1636 938L1544 738Q1308 770 1138.5 866.0Q969 962 885 1105Q800 962 632.0 866.0Q464 770 230 738L136 938Q313 960 443.5 1020.5Q574 1081 647.5 1164.5Q721 1248 735 1340H204V1540H1566Z"/><path transform="translate(5782 0)" d="M1180 840 1052 640Q900 688 791.5 781.0Q683 874 620 1002Q557 864 445.0 763.5Q333 663 176 612L48 812Q194 859 292.5 947.0Q391 1035 438.5 1146.5Q486 1258 486 1378V1552H752V1378Q751 1260 796.5 1154.0Q842 1048 938.5 965.5Q1035 883 1180 840ZM1578 -184H1322V268H326V472H1578ZM1578 550H1322V1636H1578Z"/><path transform="translate(8024 0)" d="M1546 1272Q1545 1175 1480.5 1103.0Q1416 1031 1295.0 987.0Q1174 943 1006 932V812H1714V608H54V812H756V932Q590 945 469.5 988.5Q349 1032 284.5 1104.0Q220 1176 220 1272Q220 1380 301.0 1457.0Q382 1534 531.5 1574.0Q681 1614 884 1614Q1088 1614 1236.5 1574.0Q1385 1534 1465.0 1457.0Q1545 1380 1546 1272ZM486 1272Q485 1199 587.5 1160.5Q690 1122 884 1122Q1076 1122 1179.0 1160.5Q1282 1199 1282 1272Q1282 1347 1178.5 1386.5Q1075 1426 884 1426Q690 1426 587.5 1386.5Q485 1347 486 1272ZM500 382H1258V528H1514V-164H248V528H500ZM1258 40V188H500V40Z"/><path transform="translate(9794 0)" d="M1148 714 1006 516Q866 571 766.5 673.0Q667 775 609 913Q548 766 441.0 658.5Q334 551 182 494L46 694Q190 745 287.0 841.5Q384 938 431.0 1061.5Q478 1185 478 1322V1532H736V1322Q736 1191 780.0 1072.0Q824 953 916.5 859.0Q1009 765 1148 714ZM1588 284H1334V840H1022V1046H1334V1192H1022V1398H1334V1634H1588ZM1626 -152H376V414H634V52H1626Z"/></g></svg>
